<svg xmlns="http://www.w3.org/2000/svg" viewBox="0 0 520 880" font-family="'JetBrains Mono', 'Cascadia Code', 'Fira Code', monospace">
  <defs>
    <linearGradient id="fhd" x1="0" y1="0" x2="1" y2="0">
      <stop offset="0%" stop-color="#1E293B"/>
      <stop offset="100%" stop-color="#334155"/>
    </linearGradient>
  </defs>

  <rect width="520" height="880" rx="12" fill="#0F172A"/>
  <rect x="0" y="0" width="520" height="42" rx="12" fill="url(#fhd)"/>
  <rect x="0" y="22" width="520" height="20" fill="url(#fhd)"/>
  <!-- Window buttons -->
  <circle cx="20" cy="21" r="6" fill="#EF4444"/>
  <circle cx="38" cy="21" r="6" fill="#F59E0B"/>
  <circle cx="56" cy="21" r="6" fill="#10B981"/>
  <text x="260" y="27" text-anchor="middle" fill="#94A3B8" font-size="11" font-weight="600">📂 Project Structure — NariSetu</text>

  <text x="24" y="68" fill="#F59E0B" font-size="11" font-weight="700">NARISETU/</text>

  <!-- Client -->
  <text x="24" y="90" fill="#64748B" font-size="10">├── </text><text x="56" y="90" fill="#60A5FA" font-size="10" font-weight="600">client/</text><text x="260" y="90" fill="#475569" font-size="9">← React Frontend</text>
  <text x="24" y="108" fill="#64748B" font-size="10">│   ├── </text><text x="80" y="108" fill="#60A5FA" font-size="10">src/</text>
  <text x="24" y="126" fill="#64748B" font-size="10">│   │   ├── </text><text x="104" y="126" fill="#60A5FA" font-size="10">components/</text>
  <text x="24" y="144" fill="#64748B" font-size="10">│   │   │   ├── </text><text x="128" y="144" fill="#60A5FA" font-size="10">landing/</text><text x="260" y="144" fill="#475569" font-size="9">← Marketing Site</text>
  <text x="24" y="162" fill="#64748B" font-size="10">│   │   │   │   ├── </text><text x="152" y="162" fill="#94A3B8" font-size="10">Hero.jsx, Navbar.jsx, Footer.jsx</text>
  <text x="24" y="180" fill="#64748B" font-size="10">│   │   │   │   ├── </text><text x="152" y="180" fill="#94A3B8" font-size="10">Features.jsx, HowItWorks.jsx</text>
  <text x="24" y="198" fill="#64748B" font-size="10">│   │   │   │   └── </text><text x="152" y="198" fill="#94A3B8" font-size="10">Testimonials.jsx, FAQ.jsx, CTA.jsx</text>
  <text x="24" y="216" fill="#64748B" font-size="10">│   │   │   ├── </text><text x="128" y="216" fill="#60A5FA" font-size="10">learning-hub/</text><text x="280" y="216" fill="#475569" font-size="9">← Education</text>
  <text x="24" y="234" fill="#64748B" font-size="10">│   │   │   │   └── </text><text x="152" y="234" fill="#94A3B8" font-size="10">CourseCard, LessonCard, QuizCard…</text>
  <text x="24" y="252" fill="#64748B" font-size="10">│   │   │   ├── </text><text x="128" y="252" fill="#A78BFA" font-size="10">DashboardAnalytics.jsx</text>
  <text x="24" y="270" fill="#64748B" font-size="10">│   │   │   ├── </text><text x="128" y="270" fill="#A78BFA" font-size="10">Marketplace.jsx</text>
  <text x="24" y="288" fill="#64748B" font-size="10">│   │   │   ├── </text><text x="128" y="288" fill="#A78BFA" font-size="10">VoiceLedger.jsx</text>
  <text x="24" y="306" fill="#64748B" font-size="10">│   │   │   ├── </text><text x="128" y="306" fill="#A78BFA" font-size="10">SchemeForm.jsx</text>
  <text x="24" y="324" fill="#64748B" font-size="10">│   │   │   ├── </text><text x="128" y="324" fill="#A78BFA" font-size="10">ImageUploader.jsx</text>
  <text x="24" y="342" fill="#64748B" font-size="10">│   │   │   └── </text><text x="128" y="342" fill="#A78BFA" font-size="10">ProtectedRoute.jsx</text>
  <text x="24" y="362" fill="#64748B" font-size="10">│   │   ├── </text><text x="104" y="362" fill="#60A5FA" font-size="10">pages/</text>
  <text x="24" y="380" fill="#64748B" font-size="10">│   │   │   ├── </text><text x="128" y="380" fill="#34D399" font-size="10">IntelligenceDashboard.jsx</text><text x="340" y="380" fill="#475569" font-size="9">← AI Home</text>
  <text x="24" y="398" fill="#64748B" font-size="10">│   │   │   ├── </text><text x="128" y="398" fill="#34D399" font-size="10">AICoachPage.jsx</text>
  <text x="24" y="416" fill="#64748B" font-size="10">│   │   │   ├── </text><text x="128" y="416" fill="#34D399" font-size="10">LearningHubPage.jsx</text>
  <text x="24" y="434" fill="#64748B" font-size="10">│   │   │   ├── </text><text x="128" y="434" fill="#34D399" font-size="10">LandingPage.jsx</text>
  <text x="24" y="452" fill="#64748B" font-size="10">│   │   │   ├── </text><text x="128" y="452" fill="#34D399" font-size="10">LoginPage.jsx, RegisterPage.jsx</text>
  <text x="24" y="470" fill="#64748B" font-size="10">│   │   │   ├── </text><text x="128" y="470" fill="#34D399" font-size="10">ProfilePage.jsx, OnboardingPage.jsx</text>
  <text x="24" y="488" fill="#64748B" font-size="10">│   │   │   └── </text><text x="128" y="488" fill="#34D399" font-size="10">SchemeHistoryPage.jsx</text>
  <text x="24" y="508" fill="#64748B" font-size="10">│   │   ├── </text><text x="104" y="508" fill="#60A5FA" font-size="10">contexts/</text><text x="260" y="508" fill="#475569" font-size="9">← AuthContext.jsx</text>
  <text x="24" y="526" fill="#64748B" font-size="10">│   │   ├── </text><text x="104" y="526" fill="#60A5FA" font-size="10">services/</text><text x="260" y="526" fill="#475569" font-size="9">← Firebase config</text>
  <text x="24" y="544" fill="#64748B" font-size="10">│   │   └── </text><text x="104" y="544" fill="#FBBF24" font-size="10">App.jsx, main.jsx</text>
  <text x="24" y="562" fill="#64748B" font-size="10">│   └── </text><text x="64" y="562" fill="#94A3B8" font-size="10">index.html, vite.config.js</text>

  <!-- Backend -->
  <text x="24" y="592" fill="#64748B" font-size="10">├── </text><text x="56" y="592" fill="#10B981" font-size="10" font-weight="600">config/</text><text x="260" y="592" fill="#475569" font-size="9">← firebase.js</text>
  <text x="24" y="610" fill="#64748B" font-size="10">├── </text><text x="56" y="610" fill="#10B981" font-size="10" font-weight="600">controllers/</text>
  <text x="24" y="628" fill="#64748B" font-size="10">│   ├── </text><text x="80" y="628" fill="#6EE7B7" font-size="10">aiController.js</text><text x="260" y="628" fill="#475569" font-size="9">← AI Intelligence</text>
  <text x="24" y="646" fill="#64748B" font-size="10">│   ├── </text><text x="80" y="646" fill="#6EE7B7" font-size="10">schemeController.js</text><text x="260" y="646" fill="#475569" font-size="9">← Match Engine</text>
  <text x="24" y="664" fill="#64748B" font-size="10">│   ├── </text><text x="80" y="664" fill="#6EE7B7" font-size="10">dashboardController.js</text>
  <text x="24" y="682" fill="#64748B" font-size="10">│   ├── </text><text x="80" y="682" fill="#6EE7B7" font-size="10">learningController.js, ledgerController.js</text>
  <text x="24" y="700" fill="#64748B" font-size="10">│   └── </text><text x="80" y="700" fill="#6EE7B7" font-size="10">businessController.js, productController.js</text>

  <text x="24" y="722" fill="#64748B" font-size="10">├── </text><text x="56" y="722" fill="#10B981" font-size="10" font-weight="600">routes/</text><text x="260" y="722" fill="#475569" font-size="9">← Express route definitions</text>
  <text x="24" y="740" fill="#64748B" font-size="10">├── </text><text x="56" y="740" fill="#10B981" font-size="10" font-weight="600">middleware/</text><text x="260" y="740" fill="#475569" font-size="9">← verifyToken, validatePayload</text>
  <text x="24" y="758" fill="#64748B" font-size="10">├── </text><text x="56" y="758" fill="#10B981" font-size="10" font-weight="600">utils/</text>
  <text x="24" y="776" fill="#64748B" font-size="10">│   ├── </text><text x="80" y="776" fill="#6EE7B7" font-size="10">aiCoachService.js</text><text x="260" y="776" fill="#475569" font-size="9">← Gemini AI Engine</text>
  <text x="24" y="794" fill="#64748B" font-size="10">│   ├── </text><text x="80" y="794" fill="#6EE7B7" font-size="10">matchEngine.js</text><text x="260" y="794" fill="#475569" font-size="9">← Two-Pass Matcher</text>
  <text x="24" y="812" fill="#64748B" font-size="10">│   └── </text><text x="80" y="812" fill="#6EE7B7" font-size="10">courseCatalog.js</text><text x="260" y="812" fill="#475569" font-size="9">← Learning Content</text>

  <text x="24" y="834" fill="#64748B" font-size="10">├── </text><text x="56" y="834" fill="#FBBF24" font-size="10" font-weight="600">index.js</text><text x="260" y="834" fill="#475569" font-size="9">← Express Entry Point</text>
  <text x="24" y="852" fill="#64748B" font-size="10">├── </text><text x="56" y="852" fill="#94A3B8" font-size="10">vercel.json, package.json</text>
  <text x="24" y="870" fill="#64748B" font-size="10">└── </text><text x="56" y="870" fill="#60A5FA" font-size="10" font-weight="600">docs/</text><text x="260" y="870" fill="#475569" font-size="9">← Diagrams, Screenshots</text>
</svg>
